<svg width="256" height="256" viewBox="0 0 256 256" fill="none" xmlns="http://www.w3.org/2000/svg">
<path d="M255.285 196.47C255.201 195.946 255.121 195.428 255.034 194.91C252.819 181.551 248.501 168.628 242.24 156.622C236.111 144.858 228.201 134.111 218.79 124.762C211.918 117.927 204.3 111.887 196.077 106.757C196.126 106.677 196.167 106.589 196.217 106.507C198.799 102.046 201.389 97.5899 203.972 93.1269L211.548 80.0589C213.366 76.9329 215.18 73.7989 216.986 70.6729C217.9 69.0959 218.436 67.3281 218.551 65.5088C218.666 63.6895 218.357 61.8684 217.648 60.1889C216.678 57.8727 214.987 55.9312 212.825 54.6529C211.299 53.7484 209.588 53.1982 207.821 53.0429C207.083 52.9802 206.34 52.9862 205.603 53.0609C203.756 53.2493 201.98 53.8731 200.421 54.881C198.863 55.8889 197.565 57.2522 196.635 58.8589C194.821 61.9859 193.007 65.1189 191.197 68.2449L183.621 81.3139C181.038 85.7759 178.448 90.2319 175.866 94.6939C175.584 95.1809 175.299 95.6669 175.018 96.1609C174.626 96.0039 174.238 95.8479 173.846 95.6989C159.606 90.2689 144.158 87.2989 128.01 87.2989C127.568 87.2989 127.131 87.2989 126.686 87.3049C112.329 87.4479 98.534 89.9449 85.664 94.4249C84.18 94.9431 82.7064 95.4905 81.244 96.0669C80.982 95.6119 80.712 95.1559 80.454 94.6999C77.871 90.2379 75.281 85.7819 72.699 81.3199L65.123 68.2499C63.305 65.1239 61.491 61.9909 59.684 58.8639C58.5662 56.931 56.9202 55.357 54.9392 54.3269C52.9581 53.2967 50.7243 52.853 48.5 53.0479C46.7293 53.1981 45.0161 53.7494 43.49 54.6599C41.8143 55.6542 40.413 57.0506 39.413 58.7229C39.132 59.1969 38.881 59.6899 38.671 60.1959C37.5756 62.7941 37.4461 65.6985 38.306 68.3839C38.565 69.1699 38.9 69.9379 39.329 70.6799C41.1463 73.8061 42.9593 76.9348 44.768 80.0659C47.298 84.4229 49.822 88.7789 52.348 93.1349C54.93 97.5969 57.516 102.053 60.098 106.515C60.118 106.553 60.144 106.59 60.163 106.627C54.967 109.855 50.0068 113.449 45.32 117.38C36.9363 124.416 29.477 132.485 23.12 141.395C19.6546 146.251 16.5337 151.343 13.78 156.635C9.02542 165.753 5.38494 175.411 2.937 185.399C2.16882 188.548 1.51804 191.725 0.986 194.923C0.899 195.441 0.819 195.965 0.739 196.483C0.449985 198.355 0.203588 200.234 0 202.118H256C255.795 200.227 255.551 198.348 255.266 196.482L255.285 196.47Z" fill="white"/>
<path d="M194.59 166.712C199.712 163.302 200.457 155.412 196.251 149.092C192.048 142.769 184.488 140.41 179.368 143.819C174.246 147.229 173.5 155.119 177.706 161.44C181.909 167.762 189.471 170.122 194.59 166.712ZM78.518 161.462C82.724 155.141 81.978 147.252 76.856 143.842C71.733 140.432 64.176 142.792 59.97 149.112C55.767 155.435 56.512 163.324 61.632 166.734C66.754 170.144 74.315 167.784 78.518 161.462Z" fill="#121212"/>
</svg>
