<svg width="256" height="256" viewBox="0 0 256 256" fill="none" xmlns="http://www.w3.org/2000/svg">
<path d="M225.062 87.2704C223.577 88.4224 197.362 103.194 197.362 136.038C197.362 174.029 230.719 187.469 231.718 187.802C231.564 188.621 226.418 206.208 214.13 224.128C203.174 239.898 191.73 255.642 174.322 255.642C156.914 255.642 152.434 245.53 132.338 245.53C112.754 245.53 105.791 255.974 89.868 255.974C73.9448 255.974 62.8344 241.382 50.06 223.462C35.2632 202.419 23.308 169.728 23.308 138.701C23.308 88.9344 55.6664 62.5408 87.5128 62.5408C104.434 62.5408 118.54 73.6512 129.164 73.6512C139.276 73.6512 155.046 61.8752 174.297 61.8752C181.593 61.8752 207.807 62.5408 225.062 87.2704ZM165.158 40.8064C173.119 31.36 178.751 18.2528 178.751 5.1456C178.751 3.328 178.598 1.4848 178.265 0C165.311 0.4864 149.9 8.6272 140.607 19.4048C133.311 27.6992 126.502 40.8064 126.502 54.0928C126.502 56.0896 126.834 58.0864 126.988 58.7264C127.807 58.88 129.138 59.0592 130.47 59.0592C142.092 59.0592 156.71 51.2768 165.158 40.8064Z" fill="white"/>
</svg>
