<svg width="256" height="256" viewBox="0 0 256 256" fill="none" xmlns="http://www.w3.org/2000/svg">
<path d="M165.316 6.3979C167.402 8.98728 168.465 12.481 170.592 19.4686L217.06 172.117C199.606 163.059 180.872 156.717 161.505 153.308L131.25 51.0657C131.008 50.2502 130.51 49.5348 129.828 49.0265C129.146 48.5181 128.318 48.2441 127.468 48.2454C126.617 48.2467 125.79 48.5234 125.11 49.0339C124.43 49.5444 123.933 50.2614 123.694 51.0776L93.8052 153.257C74.3507 156.65 55.5307 163.002 38 172.094L84.6955 19.4329C86.8296 12.458 87.8969 8.96979 89.9827 6.38531C91.824 4.10383 94.2191 2.332 96.9395 1.23873C100.021 0 103.668 0 110.963 0H144.315C151.619 0 155.271 0 158.356 1.24083C161.078 2.33675 163.474 4.11228 165.315 6.3979H165.316Z" fill="white"/>
<path d="M170.877 179.382C163.216 185.932 147.926 190.399 130.314 190.399C108.698 190.399 90.58 183.669 85.7727 174.619C84.0534 179.806 83.668 185.743 83.668 189.534C83.668 189.534 82.5356 208.156 95.4874 221.108C95.4874 214.382 100.94 208.93 107.665 208.93C119.192 208.93 119.178 218.987 119.168 227.146L119.167 227.874C119.167 240.258 126.735 250.874 137.5 255.349C135.843 251.939 134.985 248.196 134.99 244.404C134.99 232.593 141.924 228.196 149.983 223.085C156.395 219.018 163.52 214.5 168.429 205.436C171.073 200.554 172.454 195.087 172.445 189.534C172.445 185.995 171.896 182.584 170.877 179.382Z" fill="white"/>
</svg>
