<svg width="256" height="256" viewBox="0 0 256 256" fill="none" xmlns="http://www.w3.org/2000/svg">
<path d="M69.3334 213.333C53.1556 213.333 39.3334 207.733 27.8667 196.533C16.4 185.333 10.6667 171.644 10.6667 155.467C10.6667 141.6 14.8445 129.244 23.2 118.4C31.5556 107.556 42.4889 100.622 56 97.6C60.4445 81.2444 69.3334 68 82.6667 57.8666C96 47.7333 111.111 42.6666 128 42.6666C148.8 42.6666 166.444 49.9111 180.933 64.4C195.422 78.8888 202.667 96.5333 202.667 117.333C214.933 118.756 225.111 124.044 233.2 133.2C241.289 142.356 245.333 153.067 245.333 165.333C245.333 178.667 240.667 190 231.333 199.333C222 208.667 210.667 213.333 197.333 213.333H69.3334Z" fill="white"/>
</svg>
