<svg width="256" height="256" viewBox="0 0 256 256" fill="none" xmlns="http://www.w3.org/2000/svg">
<path d="M93.8667 224H53.3333C47.4667 224 42.4444 221.911 38.2667 217.733C34.0889 213.556 32 208.533 32 202.667V162.133C40.5333 162.133 48 159.422 54.4 154C60.8 148.578 64 141.689 64 133.333C64 124.978 60.8 118.089 54.4 112.667C48 107.244 40.5333 104.533 32 104.533V64C32 58.1333 34.0889 53.1111 38.2667 48.9333C42.4444 44.7556 47.4667 42.6667 53.3333 42.6667H96C96 35.2 98.5778 28.8889 103.733 23.7333C108.889 18.5778 115.2 16 122.667 16C130.133 16 136.444 18.5778 141.6 23.7333C146.756 28.8889 149.333 35.2 149.333 42.6667H192C197.867 42.6667 202.889 44.7556 207.067 48.9333C211.244 53.1111 213.333 58.1333 213.333 64V106.667C220.8 106.667 227.111 109.244 232.267 114.4C237.422 119.556 240 125.867 240 133.333C240 140.8 237.422 147.111 232.267 152.267C227.111 157.422 220.8 160 213.333 160V202.667C213.333 208.533 211.244 213.556 207.067 217.733C202.889 221.911 197.867 224 192 224H151.467C151.467 215.111 148.667 207.556 143.067 201.333C137.467 195.111 130.667 192 122.667 192C114.667 192 107.867 195.111 102.267 201.333C96.6667 207.556 93.8667 215.111 93.8667 224Z" fill="white"/>
</svg>
