<svg width="256" height="256" viewBox="0 0 256 256" fill="none" xmlns="http://www.w3.org/2000/svg">
<g clip-path="url(#clip0_1033_1628)">
<mask id="mask0_1033_1628" style="mask-type:alpha" maskUnits="userSpaceOnUse" x="0" y="0" width="256" height="256">
<path d="M128 256C198.692 256 256 198.692 256 128C256 57.3076 198.692 0 128 0C57.3076 0 0 57.3076 0 128C0 198.692 57.3076 256 128 256Z" fill="black"/>
</mask>
<g mask="url(#mask0_1033_1628)">
<path d="M128 251.733C196.336 251.733 251.733 196.336 251.733 128C251.733 59.664 196.336 4.26672 128 4.26672C59.664 4.26672 4.26667 59.664 4.26667 128C4.26667 196.336 59.664 251.733 128 251.733Z" fill="#121212" stroke="white" stroke-width="8.53333"/>
<path d="M212.634 224.029L98.3353 76.8H76.8V179.157H94.0283V98.6789L199.11 234.446C203.851 231.273 208.368 227.79 212.634 224.029Z" fill="url(#paint0_linear_1033_1628)"/>
<path d="M180.622 76.8H163.556V179.2H180.622V76.8Z" fill="url(#paint1_linear_1033_1628)"/>
</g>
</g>
<defs>
<linearGradient id="paint0_linear_1033_1628" x1="155.022" y1="165.689" x2="205.511" y2="228.267" gradientUnits="userSpaceOnUse">
<stop stop-color="white"/>
<stop offset="1" stop-color="white" stop-opacity="0"/>
</linearGradient>
<linearGradient id="paint1_linear_1033_1628" x1="172.089" y1="76.8" x2="171.803" y2="152" gradientUnits="userSpaceOnUse">
<stop stop-color="white"/>
<stop offset="1" stop-color="white" stop-opacity="0"/>
</linearGradient>
<clipPath id="clip0_1033_1628">
<rect width="256" height="256" fill="white"/>
</clipPath>
</defs>
</svg>
