<svg width="256" height="256" viewBox="0 0 256 256" fill="none" xmlns="http://www.w3.org/2000/svg">
<path d="M237.504 104.569C240.361 95.965 241.35 86.8501 240.403 77.8335C239.456 68.8169 236.596 60.1061 232.014 52.2831C218.076 28.0212 190.062 15.5412 162.702 21.4056C155.127 12.9791 145.467 6.69426 134.694 3.18218C123.921 -0.329896 112.414 -0.945542 101.328 1.39707C90.2415 3.73969 79.9668 8.95809 71.5356 16.5282C63.1043 24.0983 56.8134 33.7536 53.2945 44.5243C44.411 46.3459 36.0187 50.0427 28.6783 55.3676C21.338 60.6924 15.2188 67.5227 10.7296 75.4019C-3.36026 99.6254 -0.161245 130.18 18.639 150.961C15.7712 159.561 14.7731 168.675 15.7112 177.691C16.6494 186.708 19.5023 195.421 24.079 203.246C38.0349 227.517 66.0669 239.996 93.4412 234.124C99.4598 240.901 106.855 246.317 115.133 250.008C123.411 253.7 132.381 255.584 141.445 255.533C169.488 255.558 194.333 237.455 202.899 210.752C211.781 208.927 220.172 205.229 227.512 199.905C234.851 194.58 240.971 187.752 245.463 179.874C259.382 155.694 256.171 125.305 237.504 104.569ZM141.445 238.81C130.252 238.827 119.409 234.904 110.819 227.728L112.33 226.871L163.205 197.505C164.471 196.762 165.523 195.703 166.256 194.432C166.989 193.16 167.379 191.719 167.387 190.251V118.522L188.896 130.964C189.11 131.073 189.26 131.279 189.298 131.518V190.956C189.243 217.362 167.851 238.754 141.445 238.81ZM38.5863 194.886C32.9727 185.193 30.9572 173.831 32.8943 162.798L34.4047 163.705L85.3309 193.072C86.591 193.812 88.0255 194.202 89.4865 194.202C90.9475 194.202 92.382 193.812 93.6421 193.072L155.851 157.208V182.041C155.845 182.169 155.811 182.295 155.75 182.408C155.689 182.522 155.603 182.62 155.499 182.695L103.969 212.415C81.0695 225.607 51.8136 217.762 38.5863 194.886ZM25.1867 84.0665C30.8393 74.3111 39.7613 66.8704 50.3732 63.0617V123.507C50.354 124.968 50.7271 126.407 51.4537 127.674C52.1802 128.941 53.2335 129.99 54.5036 130.711L116.41 166.425L94.9014 178.866C94.7851 178.928 94.6554 178.96 94.5238 178.96C94.3922 178.96 94.2625 178.928 94.1462 178.866L42.7168 149.199C19.8629 135.952 12.0253 106.719 25.1867 83.8154V84.0665ZM201.892 125.12L139.782 89.0536L161.242 76.6622C161.358 76.6004 161.488 76.5681 161.62 76.5681C161.752 76.5681 161.882 76.6004 161.998 76.6622L213.427 106.382C221.291 110.919 227.702 117.6 231.911 125.644C236.12 133.688 237.954 142.763 237.199 151.81C236.443 160.858 233.13 169.503 227.645 176.738C222.161 183.973 214.731 189.498 206.224 192.669V132.222C206.179 130.764 205.757 129.343 204.997 128.098C204.238 126.853 203.167 125.827 201.892 125.12ZM223.299 92.933L221.788 92.0251L170.963 62.4069C169.695 61.6631 168.252 61.2709 166.782 61.2709C165.312 61.2709 163.869 61.6631 162.602 62.4069L100.442 98.2725V73.4395C100.429 73.3133 100.45 73.1858 100.503 73.0706C100.556 72.9553 100.639 72.8566 100.744 72.7848L152.174 43.1154C160.056 38.5746 169.068 36.3719 178.156 36.7651C187.244 37.1582 196.032 40.1308 203.493 45.3353C210.954 50.5397 216.778 57.7609 220.285 66.1541C223.793 74.5474 224.838 83.7658 223.298 92.7311V92.933H223.299ZM88.7062 136.957L67.1973 124.566C67.0898 124.501 66.9979 124.413 66.9281 124.308C66.8584 124.204 66.8124 124.085 66.7936 123.961V64.6745C66.8055 55.5795 69.4064 46.6758 74.292 39.0044C79.1777 31.3331 86.1463 25.2111 94.3831 21.3543C102.62 17.4974 111.784 16.0651 120.805 17.2248C129.826 18.3845 138.33 22.0883 145.324 27.903L143.812 28.7597L92.9371 58.1258C91.671 58.8685 90.6199 59.9277 89.8869 61.1994C89.154 62.4712 88.7644 63.9117 88.7564 65.3795L88.7062 136.958V136.957ZM100.392 111.771L128.097 95.8031L155.851 111.772V143.707L128.197 159.675L100.443 143.707L100.392 111.771Z" fill="white"/>
</svg>
