<svg width="256" height="256" viewBox="0 0 256 256" fill="none" xmlns="http://www.w3.org/2000/svg">
<path d="M210.483 87.8238C207.759 86.8891 205.011 86.0232 202.243 85.2268C202.708 83.3268 203.136 81.4498 203.516 79.6058C209.754 49.3248 205.676 24.9298 191.747 16.8978C178.392 9.19783 156.551 17.2268 134.493 36.4238C132.319 38.3192 130.193 40.2691 128.118 42.2718C126.729 40.9401 125.315 39.6342 123.877 38.3548C100.759 17.8288 77.587 9.17783 63.673 17.2328C50.33 24.9568 46.379 47.8898 51.995 76.5878C52.5537 79.4301 53.1846 82.2576 53.887 85.0678C50.607 85.9998 47.442 86.9918 44.413 88.0478C17.309 97.4978 0 112.307 0 127.668C0 143.533 18.582 159.446 46.812 169.095C49.1007 169.874 51.4084 170.596 53.733 171.26C52.978 174.287 52.3078 177.334 51.723 180.398C46.369 208.598 50.55 230.989 63.857 238.664C77.601 246.59 100.669 238.444 123.13 218.809C124.951 217.213 126.733 215.571 128.472 213.886C130.72 216.054 133.027 218.16 135.392 220.2C157.15 238.922 178.638 246.482 191.932 238.786C205.663 230.837 210.126 206.783 204.332 177.518C203.876 175.225 203.364 172.944 202.797 170.676C204.417 170.196 206.007 169.702 207.557 169.188C236.905 159.465 256 143.745 256 127.668C256 112.251 238.132 97.3418 210.483 87.8238ZM204.118 158.808C202.718 159.271 201.282 159.718 199.818 160.153C196.578 149.896 192.206 138.99 186.855 127.721C191.961 116.721 196.165 105.954 199.314 95.7638C201.933 96.5218 204.474 97.3208 206.924 98.1638C230.614 106.32 245.064 118.377 245.064 127.668C245.064 137.564 229.458 150.411 204.118 158.808ZM193.604 179.642C196.166 192.582 196.531 204.282 194.834 213.429C193.31 221.648 190.244 227.127 186.452 229.322C178.385 233.992 161.132 227.922 142.525 211.91C140.325 210.013 138.179 208.056 136.088 206.04C143.302 198.151 150.511 188.98 157.547 178.794C169.923 177.696 181.615 175.9 192.218 173.449C192.74 175.556 193.204 177.622 193.604 179.642ZM87.276 228.515C79.394 231.298 73.116 231.378 69.321 229.19C61.246 224.533 57.889 206.554 62.468 182.438C63.0123 179.588 63.6356 176.754 64.337 173.939C74.823 176.259 86.43 177.927 98.835 178.933C105.919 188.9 113.336 198.061 120.811 206.083C119.222 207.62 117.596 209.118 115.934 210.575C106.001 219.257 96.048 225.417 87.276 228.515ZM50.35 158.747C37.867 154.48 27.558 148.935 20.492 142.884C14.142 137.447 10.937 132.048 10.937 127.668C10.937 118.346 24.834 106.456 48.013 98.3748C50.826 97.3948 53.77 96.4698 56.825 95.6018C60.029 106.022 64.231 116.917 69.302 127.934C64.165 139.114 59.903 150.183 56.668 160.726C54.5461 160.118 52.4395 159.458 50.35 158.747ZM62.728 74.4868C57.917 49.8998 61.112 31.3528 69.153 26.6978C77.717 21.7398 96.655 28.8088 116.616 46.5328C117.918 47.6912 119.198 48.8731 120.457 50.0778C113.019 58.0648 105.67 67.1578 98.649 77.0658C86.609 78.1818 75.084 79.9738 64.488 82.3748C63.8352 79.761 63.2483 77.1302 62.728 74.4868ZM173.155 101.755C170.652 97.4317 168.057 93.1631 165.37 88.9518C173.538 89.9848 181.364 91.3558 188.713 93.0318C186.507 100.104 183.757 107.497 180.52 115.077C178.154 110.588 175.698 106.146 173.155 101.755ZM128.123 57.8938C133.167 63.3588 138.219 69.4598 143.188 76.0798C133.108 75.6038 123.011 75.6018 112.931 76.0738C117.905 69.5148 123 63.4218 128.123 57.8938ZM82.802 101.83C80.2903 106.186 77.8807 110.6 75.575 115.068C72.391 107.515 69.666 100.088 67.441 92.9158C74.745 91.2818 82.534 89.9458 90.65 88.9318C87.9334 93.1688 85.3167 97.47 82.802 101.83ZM90.883 167.182C82.498 166.246 74.592 164.979 67.29 163.389C69.55 156.089 72.335 148.504 75.588 140.789C77.9028 145.26 80.3225 149.677 82.845 154.035C85.439 158.515 88.125 162.903 90.883 167.182ZM128.425 198.212C123.241 192.62 118.071 186.433 113.022 179.779C117.924 179.971 122.921 180.069 128 180.069C133.218 180.069 138.376 179.952 143.453 179.726C138.468 186.5 133.435 192.696 128.425 198.212ZM180.623 140.395C184.045 148.195 186.929 155.74 189.219 162.915C181.797 164.609 173.783 165.973 165.339 166.986C168.045 162.696 170.665 158.354 173.198 153.96C175.773 149.494 178.249 144.971 180.623 140.395ZM163.725 148.496C159.847 155.232 155.751 161.841 151.444 168.311C143.642 168.863 135.822 169.138 128 169.134C120.033 169.134 112.284 168.886 104.822 168.402C100.402 161.947 96.2282 155.327 92.309 148.556C88.4082 141.821 84.7656 134.94 81.387 127.929C84.757 120.916 88.3895 114.032 92.277 107.292L92.276 107.293C96.162 100.551 100.303 93.9593 104.689 87.5318C112.302 86.9558 120.109 86.6558 127.999 86.6558C135.925 86.6558 143.743 86.9588 151.354 87.5388C155.696 93.9567 159.81 100.526 163.689 107.234C167.589 113.959 171.27 120.809 174.725 127.774C171.306 134.81 167.637 141.721 163.725 148.496ZM186.285 26.3718C194.857 31.3158 198.191 51.2528 192.805 77.3978C192.461 79.0658 192.075 80.7648 191.655 82.4878C181.033 80.0358 169.5 78.2128 157.425 77.0798C150.391 67.0628 143.102 57.9558 135.785 50.0718C137.703 48.2233 139.666 46.4228 141.673 44.6718C160.573 28.2248 178.237 21.7308 186.285 26.3718ZM128 104.808C140.625 104.808 150.86 115.043 150.86 127.668C150.86 140.293 140.625 150.528 128 150.528C115.375 150.528 105.14 140.293 105.14 127.668C105.14 115.043 115.375 104.808 128 104.808Z" fill="white"/>
</svg>
