<svg width="111" height="111" viewBox="0 0 111 111" fill="none" xmlns="http://www.w3.org/2000/svg">
<g clip-path="url(#clip0_745_700)">
<circle cx="6" cy="6" r="1.5" fill="white"/>
<circle cx="17" cy="6" r="1.5" fill="white"/>
<circle cx="28" cy="6" r="1.5" fill="white"/>
<circle cx="39" cy="6" r="1.5" fill="white"/>
<circle cx="50" cy="6" r="1.5" fill="white"/>
<circle cx="61" cy="6" r="1.5" fill="white"/>
<circle cx="72" cy="6" r="1.5" fill="white"/>
<circle cx="83" cy="6" r="1.5" fill="white"/>
<circle cx="94" cy="6" r="1.5" fill="white"/>
<circle cx="105" cy="6" r="1.5" fill="white"/>
</g>
<g clip-path="url(#clip1_745_700)">
<circle cx="6" cy="17" r="1.5" fill="white"/>
<circle cx="17" cy="17" r="1.5" fill="white"/>
<circle cx="28" cy="17" r="1.5" fill="white"/>
<circle cx="39" cy="17" r="1.5" fill="white"/>
<circle cx="50" cy="17" r="1.5" fill="white"/>
<circle cx="61" cy="17" r="1.5" fill="white"/>
<circle cx="72" cy="17" r="1.5" fill="white"/>
<circle cx="83" cy="17" r="1.5" fill="white"/>
<circle cx="94" cy="17" r="1.5" fill="white"/>
<circle cx="105" cy="17" r="1.5" fill="white"/>
</g>
<g clip-path="url(#clip2_745_700)">
<circle cx="6" cy="28" r="1.5" fill="white"/>
<circle cx="17" cy="28" r="1.5" fill="white"/>
<circle cx="28" cy="28" r="1.5" fill="white"/>
<circle cx="39" cy="28" r="1.5" fill="white"/>
<circle cx="50" cy="28" r="1.5" fill="white"/>
<circle cx="61" cy="28" r="1.5" fill="white"/>
<circle cx="72" cy="28" r="1.5" fill="white"/>
<circle cx="83" cy="28" r="1.5" fill="white"/>
<circle cx="94" cy="28" r="1.5" fill="white"/>
<circle cx="105" cy="28" r="1.5" fill="white"/>
</g>
<g clip-path="url(#clip3_745_700)">
<circle cx="6" cy="39" r="1.5" fill="white"/>
<circle cx="17" cy="39" r="1.5" fill="white"/>
<circle cx="28" cy="39" r="1.5" fill="white"/>
<circle cx="39" cy="39" r="1.5" fill="white"/>
<circle cx="50" cy="39" r="1.5" fill="white"/>
<circle cx="61" cy="39" r="1.5" fill="white"/>
<circle cx="72" cy="39" r="1.5" fill="white"/>
<circle cx="83" cy="39" r="1.5" fill="white"/>
<circle cx="94" cy="39" r="1.5" fill="white"/>
<circle cx="105" cy="39" r="1.5" fill="white"/>
</g>
<g clip-path="url(#clip4_745_700)">
<circle cx="6" cy="50" r="1.5" fill="white"/>
<circle cx="17" cy="50" r="1.5" fill="white"/>
<circle cx="28" cy="50" r="1.5" fill="white"/>
<circle cx="39" cy="50" r="1.5" fill="white"/>
<circle cx="50" cy="50" r="1.5" fill="white"/>
<circle cx="61" cy="50" r="1.5" fill="white"/>
<circle cx="72" cy="50" r="1.5" fill="white"/>
<circle cx="83" cy="50" r="1.5" fill="white"/>
<circle cx="94" cy="50" r="1.5" fill="white"/>
<circle cx="105" cy="50" r="1.5" fill="white"/>
</g>
<g clip-path="url(#clip5_745_700)">
<circle cx="6" cy="61" r="1.5" fill="white"/>
<circle cx="17" cy="61" r="1.5" fill="white"/>
<circle cx="28" cy="61" r="1.5" fill="white"/>
<circle cx="39" cy="61" r="1.5" fill="white"/>
<circle cx="50" cy="61" r="1.5" fill="white"/>
<circle cx="61" cy="61" r="1.5" fill="white"/>
<circle cx="72" cy="61" r="1.5" fill="white"/>
<circle cx="83" cy="61" r="1.5" fill="white"/>
<circle cx="94" cy="61" r="1.5" fill="white"/>
<circle cx="105" cy="61" r="1.5" fill="white"/>
</g>
<g clip-path="url(#clip6_745_700)">
<circle cx="6" cy="72" r="1.5" fill="white"/>
<circle cx="17" cy="72" r="1.5" fill="white"/>
<circle cx="28" cy="72" r="1.5" fill="white"/>
<circle cx="39" cy="72" r="1.5" fill="white"/>
<circle cx="50" cy="72" r="1.5" fill="white"/>
<circle cx="61" cy="72" r="1.5" fill="white"/>
<circle cx="72" cy="72" r="1.5" fill="white"/>
<circle cx="83" cy="72" r="1.5" fill="white"/>
<circle cx="94" cy="72" r="1.5" fill="white"/>
<circle cx="105" cy="72" r="1.5" fill="white"/>
</g>
<g clip-path="url(#clip7_745_700)">
<circle cx="6" cy="83" r="1.5" fill="white"/>
<circle cx="17" cy="83" r="1.5" fill="white"/>
<circle cx="28" cy="83" r="1.5" fill="white"/>
<circle cx="39" cy="83" r="1.5" fill="white"/>
<circle cx="50" cy="83" r="1.5" fill="white"/>
<circle cx="61" cy="83" r="1.5" fill="white"/>
<circle cx="72" cy="83" r="1.5" fill="white"/>
<circle cx="83" cy="83" r="1.5" fill="white"/>
<circle cx="94" cy="83" r="1.5" fill="white"/>
<circle cx="105" cy="83" r="1.5" fill="white"/>
</g>
<g clip-path="url(#clip8_745_700)">
<circle cx="6" cy="94" r="1.5" fill="white"/>
<circle cx="17" cy="94" r="1.5" fill="white"/>
<circle cx="28" cy="94" r="1.5" fill="white"/>
<circle cx="39" cy="94" r="1.5" fill="white"/>
<circle cx="50" cy="94" r="1.5" fill="white"/>
<circle cx="61" cy="94" r="1.5" fill="white"/>
<circle cx="72" cy="94" r="1.5" fill="white"/>
<circle cx="83" cy="94" r="1.5" fill="white"/>
<circle cx="94" cy="94" r="1.5" fill="white"/>
<circle cx="105" cy="94" r="1.5" fill="white"/>
</g>
<g clip-path="url(#clip9_745_700)">
<circle cx="6" cy="105" r="1.5" fill="white"/>
<circle cx="17" cy="105" r="1.5" fill="white"/>
<circle cx="28" cy="105" r="1.5" fill="white"/>
<circle cx="39" cy="105" r="1.5" fill="white"/>
<circle cx="50" cy="105" r="1.5" fill="white"/>
<circle cx="61" cy="105" r="1.5" fill="white"/>
<circle cx="72" cy="105" r="1.5" fill="white"/>
<circle cx="83" cy="105" r="1.5" fill="white"/>
<circle cx="94" cy="105" r="1.5" fill="white"/>
<circle cx="105" cy="105" r="1.5" fill="white"/>
</g>
<defs>
<clipPath id="clip0_745_700">
<rect width="102" height="3" fill="white" transform="translate(4.5 4.5)"/>
</clipPath>
<clipPath id="clip1_745_700">
<rect width="102" height="3" fill="white" transform="translate(4.5 15.5)"/>
</clipPath>
<clipPath id="clip2_745_700">
<rect width="102" height="3" fill="white" transform="translate(4.5 26.5)"/>
</clipPath>
<clipPath id="clip3_745_700">
<rect width="102" height="3" fill="white" transform="translate(4.5 37.5)"/>
</clipPath>
<clipPath id="clip4_745_700">
<rect width="102" height="3" fill="white" transform="translate(4.5 48.5)"/>
</clipPath>
<clipPath id="clip5_745_700">
<rect width="102" height="3" fill="white" transform="translate(4.5 59.5)"/>
</clipPath>
<clipPath id="clip6_745_700">
<rect width="102" height="3" fill="white" transform="translate(4.5 70.5)"/>
</clipPath>
<clipPath id="clip7_745_700">
<rect width="102" height="3" fill="white" transform="translate(4.5 81.5)"/>
</clipPath>
<clipPath id="clip8_745_700">
<rect width="102" height="3" fill="white" transform="translate(4.5 92.5)"/>
</clipPath>
<clipPath id="clip9_745_700">
<rect width="102" height="3" fill="white" transform="translate(4.5 103.5)"/>
</clipPath>
</defs>
</svg>
