<svg width="512" height="512" viewBox="0 0 512 512" fill="none" xmlns="http://www.w3.org/2000/svg">
<g clip-path="url(#clip0_25_196)">
<path d="M187.981 72.5651C197.189 63.3569 210.61 59.7607 223.189 63.1311L380.85 105.376C393.428 108.747 403.253 118.572 406.624 131.15L448.869 288.811C452.239 301.39 448.643 314.811 439.435 324.019L324.019 439.435C314.811 448.643 301.39 452.239 288.811 448.869L131.15 406.624C118.572 403.253 108.747 393.428 105.376 380.85L63.1311 223.189C59.7607 210.61 63.3569 197.189 72.5651 187.981L187.981 72.5651Z" stroke="white" stroke-width="13.5"/>
<g filter="url(#filter0_bii_25_196)">
<path d="M199.187 96.2315C205.867 89.5512 215.603 86.9416 224.728 89.3859L365.395 127.065C374.52 129.51 381.648 136.636 384.093 145.761L421.796 286.422C424.241 295.547 421.633 305.283 414.954 311.963L311.989 414.945C305.31 421.625 295.574 424.235 286.449 421.791L145.782 384.111C136.657 381.667 129.529 374.54 127.083 365.416L89.3809 224.754C86.9352 215.63 89.5432 205.894 96.2224 199.213L199.187 96.2315Z" stroke="white" stroke-opacity="0.081" stroke-width="18"/>
</g>
<path d="M197.041 188.582H191.937C189.519 188.582 187.638 190.47 187.638 192.897V321.006C187.638 323.433 189.519 325.321 191.937 325.321H197.041C199.728 325.321 202.146 323.163 202.146 320.466V193.706C202.146 191.009 199.728 188.582 197.041 188.582ZM221.489 188.582H216.116C213.429 188.582 211.28 191.009 211.28 193.706V320.466C211.28 323.163 213.429 325.321 216.116 325.321H221.489C223.907 325.321 225.787 323.433 225.787 321.006V192.897C225.787 190.47 223.907 188.582 221.489 188.582ZM282.742 216.091C272.264 209.349 257.22 209.619 237.877 217.17C235.996 217.71 234.653 219.598 234.653 221.755V229.577C234.653 231.465 236.533 232.543 238.145 231.734C252.921 225.261 263.936 224.992 270.384 228.768C276.831 232.543 283.548 241.713 283.548 257.086V321.006C283.548 323.433 285.428 325.321 287.846 325.321H293.219C295.906 325.321 298.055 323.163 298.055 320.466V249.535C298.055 249.265 297.786 226.07 282.742 216.091ZM321.965 242.792C321.965 242.792 321.965 242.792 321.965 242.522C320.622 226.07 316.592 212.585 306.92 202.337C303.159 198.291 298.055 194.515 292.144 191.549C276.831 183.727 258.831 185.615 237.608 194.246C235.996 195.055 234.653 196.943 234.653 199.1V205.034C234.653 206.652 236.265 208 238.145 207.191C258.831 199.909 275.488 200.179 287.846 208.54C306.92 221.216 307.189 248.456 307.189 249.535V320.466C307.189 323.163 309.338 325.591 312.293 325.591H318.204C320.622 325.591 322.502 323.433 322.502 321.006V257.086C322.502 252.232 322.502 247.377 321.965 242.792Z" fill="white"/>
</g>
<defs>
<filter id="filter0_bii_25_196" x="5.95906" y="5.96514" width="499.258" height="499.246" filterUnits="userSpaceOnUse" color-interpolation-filters="sRGB">
<feFlood flood-opacity="0" result="BackgroundImageFix"/>
<feGaussianBlur in="BackgroundImageFix" stdDeviation="36.7598"/>
<feComposite in2="SourceAlpha" operator="in" result="effect1_backgroundBlur_25_196"/>
<feBlend mode="normal" in="SourceGraphic" in2="effect1_backgroundBlur_25_196" result="shape"/>
<feColorMatrix in="SourceAlpha" type="matrix" values="0 0 0 0 0 0 0 0 0 0 0 0 0 0 0 0 0 0 127 0" result="hardAlpha"/>
<feOffset dx="-21.6234" dy="21.6234"/>
<feGaussianBlur stdDeviation="10.8117"/>
<feComposite in2="hardAlpha" operator="arithmetic" k2="-1" k3="1"/>
<feColorMatrix type="matrix" values="0 0 0 0 1 0 0 0 0 1 0 0 0 0 1 0 0 0 0.081 0"/>
<feBlend mode="normal" in2="shape" result="effect2_innerShadow_25_196"/>
<feColorMatrix in="SourceAlpha" type="matrix" values="0 0 0 0 0 0 0 0 0 0 0 0 0 0 0 0 0 0 127 0" result="hardAlpha"/>
<feOffset dx="21.6234" dy="-21.6234"/>
<feGaussianBlur stdDeviation="10.8117"/>
<feComposite in2="hardAlpha" operator="arithmetic" k2="-1" k3="1"/>
<feColorMatrix type="matrix" values="0 0 0 0 0.76 0 0 0 0 0.76 0 0 0 0 0.76 0 0 0 0.081 0"/>
<feBlend mode="normal" in2="effect2_innerShadow_25_196" result="effect3_innerShadow_25_196"/>
</filter>
<clipPath id="clip0_25_196">
<rect width="512" height="512" fill="white"/>
</clipPath>
</defs>
</svg>
