<svg width="48" height="48" viewBox="0 0 48 48" fill="none" xmlns="http://www.w3.org/2000/svg">
<path d="M23.6903 0.80072C10.2677 0.80072 0 10.991 0 24.4136C0 35.1459 6.75484 44.3298 16.4032 47.562C17.6419 47.7846 18.0774 47.0201 18.0774 46.391C18.0774 45.791 18.0484 42.4814 18.0484 40.4491C18.0484 40.4491 11.2742 41.9007 9.85161 37.5652C9.85161 37.5652 8.74839 34.7491 7.16129 34.0233C7.16129 34.0233 4.94516 32.5039 7.31613 32.533C7.31613 32.533 9.72581 32.7265 11.0516 35.0298C13.171 38.7652 16.7226 37.691 18.1065 37.0523C18.329 35.5039 18.9581 34.4297 19.6548 33.791C14.2452 33.191 8.7871 32.4072 8.7871 23.0975C8.7871 20.4362 9.52258 19.1007 11.071 17.3975C10.8194 16.7685 9.99677 14.1749 11.3226 10.8265C13.3452 10.1975 18 13.4394 18 13.4394C19.9355 12.8975 22.0161 12.6168 24.0774 12.6168C26.1387 12.6168 28.2194 12.8975 30.1548 13.4394C30.1548 13.4394 34.8097 10.1878 36.8323 10.8265C38.1581 14.1846 37.3355 16.7685 37.0839 17.3975C38.6323 19.1104 39.5806 20.4459 39.5806 23.0975C39.5806 32.4362 33.8806 33.1814 28.471 33.791C29.3613 34.5556 30.1161 36.0072 30.1161 38.2814C30.1161 41.5427 30.0871 45.5781 30.0871 46.3717C30.0871 47.0007 30.5323 47.7652 31.7613 47.5427C41.4387 44.3298 48 35.1459 48 24.4136C48 10.991 37.1129 0.80072 23.6903 0.80072Z" fill="white"/>
</svg>
