<svg width="48" height="36" viewBox="0 0 48 36" fill="none" xmlns="http://www.w3.org/2000/svg">
<path d="M47.0906 11.8875C47.4562 11.5969 48 11.8687 48 12.3281V31.5C48 33.9844 45.9844 36 43.5 36H4.5C2.01562 36 0 33.9844 0 31.5V12.3375C0 11.8688 0.534375 11.6062 0.909375 11.8969C3.00937 13.5281 5.79375 15.6 15.3563 22.5469C17.3344 23.9906 20.6719 27.0281 24 27.0094C27.3469 27.0375 30.75 23.9344 32.6531 22.5469C42.2156 15.6 44.9906 13.5188 47.0906 11.8875ZM24 24C26.175 24.0375 29.3062 21.2625 30.8812 20.1188C43.3219 11.0906 44.2687 10.3031 47.1375 8.05312C47.6812 7.63125 48 6.975 48 6.28125V4.5C48 2.01562 45.9844 0 43.5 0H4.5C2.01562 0 0 2.01562 0 4.5V6.28125C0 6.975 0.31875 7.62187 0.8625 8.05312C3.73125 10.2937 4.67813 11.0906 17.1188 20.1188C18.6938 21.2625 21.825 24.0375 24 24Z" fill="white"/>
</svg>
